<svg width="50" height="50" viewBox="0 0 50 50" fill="none" xmlns="http://www.w3.org/2000/svg">
<rect width="50" height="50" fill="#155BD5"/>
<path d="M6.4 36V14.016H18.496C19.9893 14.016 21.2587 14.3253 22.304 14.944C23.3707 15.5413 24.1813 16.384 24.736 17.472C25.312 18.5387 25.6 19.7973 25.6 21.248C25.6 22.7413 25.3013 24.032 24.704 25.12C24.128 26.208 23.296 27.0613 22.208 27.68C21.1413 28.2773 19.8613 28.576 18.368 28.576H12.128V36H6.4ZM12.128 24.16H17.024C17.92 24.16 18.6027 23.9147 19.072 23.424C19.5413 22.912 19.776 22.208 19.776 21.312C19.776 20.672 19.6693 20.1493 19.456 19.744C19.264 19.3387 18.9653 19.0293 18.56 18.816C18.1547 18.5813 17.6427 18.464 17.024 18.464H12.128V24.16ZM34.4718 36V16.704H26.9518V14.048H45.0958V16.704H37.5118V36H34.4718Z" fill="white"/>
</svg>
