<svg width="274" height="39" viewBox="0 0 274 39" fill="none" xmlns="http://www.w3.org/2000/svg">
<rect width="274" height="39" fill="white"/>
<path d="M7.8 27V10.512H16.872C17.992 10.512 18.944 10.744 19.728 11.208C20.528 11.656 21.136 12.288 21.552 13.104C21.984 13.904 22.2 14.848 22.2 15.936C22.2 17.056 21.976 18.024 21.528 18.84C21.096 19.656 20.472 20.296 19.656 20.76C18.856 21.208 17.896 21.432 16.776 21.432H12.096V27H7.8ZM12.096 18.12H15.768C16.44 18.12 16.952 17.936 17.304 17.568C17.656 17.184 17.832 16.656 17.832 15.984C17.832 15.504 17.752 15.112 17.592 14.808C17.448 14.504 17.224 14.272 16.92 14.112C16.616 13.936 16.232 13.848 15.768 13.848H12.096V18.12ZM22.2345 27L28.4265 10.512H33.5865L39.7785 27H35.1945L34.2105 24.144H27.6345L26.6505 27H22.2345ZM28.6665 20.928H33.1545L31.9785 17.448C31.9145 17.272 31.8345 17.056 31.7385 16.8C31.6585 16.528 31.5705 16.248 31.4745 15.96C31.3945 15.656 31.3145 15.352 31.2345 15.048C31.1545 14.744 31.0745 14.48 30.9945 14.256H30.8265C30.7625 14.56 30.6665 14.904 30.5385 15.288C30.4265 15.672 30.3065 16.056 30.1785 16.44C30.0665 16.824 29.9625 17.16 29.8665 17.448L28.6665 20.928ZM42.2287 27V10.512H46.0447L52.0447 18.168C52.1567 18.296 52.3007 18.48 52.4767 18.72C52.6687 18.96 52.8527 19.208 53.0287 19.464C53.2047 19.704 53.3327 19.896 53.4127 20.04L53.5327 20.016C53.5327 19.664 53.5327 19.328 53.5327 19.008C53.5327 18.672 53.5327 18.392 53.5327 18.168V10.512H57.5167V27H53.7247L47.3647 18.936C47.1567 18.68 46.9567 18.416 46.7647 18.144C46.5887 17.872 46.4447 17.648 46.3327 17.472L46.2127 17.496C46.2127 17.752 46.2127 18.016 46.2127 18.288C46.2127 18.544 46.2127 18.76 46.2127 18.936V27H42.2287ZM66.8314 27.288C65.5034 27.288 64.3594 27.096 63.3994 26.712C62.4554 26.312 61.7354 25.712 61.2394 24.912C60.7434 24.096 60.4954 23.056 60.4954 21.792V21.264H64.5994V21.792C64.5994 22.528 64.7754 23.072 65.1274 23.424C65.4954 23.76 66.0314 23.928 66.7354 23.928C67.4234 23.928 67.9434 23.712 68.2954 23.28C68.6634 22.848 68.8474 22.184 68.8474 21.288V10.512H73.1434V21.312C73.1434 22.672 72.8954 23.8 72.3994 24.696C71.9034 25.576 71.1834 26.232 70.2394 26.664C69.2954 27.08 68.1594 27.288 66.8314 27.288ZM77.1966 27V10.512H81.4926V27H77.1966ZM85.575 27V10.512H89.871V23.472H98.247V27H85.575ZM99.4001 27L105.592 10.512H110.752L116.944 27H112.36L111.376 24.144H104.8L103.816 27H99.4001ZM105.832 20.928H110.32L109.144 17.448C109.08 17.272 109 17.056 108.904 16.8C108.824 16.528 108.736 16.248 108.64 15.96C108.56 15.656 108.48 15.352 108.4 15.048C108.32 14.744 108.24 14.48 108.16 14.256H107.992C107.928 14.56 107.832 14.904 107.704 15.288C107.592 15.672 107.472 16.056 107.344 16.44C107.232 16.824 107.128 17.16 107.032 17.448L105.832 20.928ZM119.394 27V10.512H128.97C130.186 10.512 131.202 10.744 132.018 11.208C132.834 11.656 133.442 12.28 133.842 13.08C134.258 13.864 134.466 14.744 134.466 15.72C134.466 16.776 134.218 17.72 133.722 18.552C133.242 19.368 132.562 20.008 131.682 20.472L134.994 27H130.194L127.458 21.192H123.69V27H119.394ZM123.69 18H128.13C128.722 18 129.194 17.808 129.546 17.424C129.914 17.024 130.098 16.496 130.098 15.84C130.098 15.408 130.018 15.04 129.858 14.736C129.698 14.432 129.474 14.2 129.186 14.04C128.898 13.864 128.546 13.776 128.13 13.776H123.69V18ZM136.266 27L142.458 10.512H147.618L153.81 27H149.226L148.242 24.144H141.666L140.682 27H136.266ZM142.698 20.928H147.186L146.01 17.448C145.946 17.272 145.866 17.056 145.77 16.8C145.69 16.528 145.602 16.248 145.506 15.96C145.426 15.656 145.346 15.352 145.266 15.048C145.186 14.744 145.106 14.48 145.026 14.256H144.858C144.794 14.56 144.698 14.904 144.57 15.288C144.458 15.672 144.338 16.056 144.21 16.44C144.098 16.824 143.994 17.16 143.898 17.448L142.698 20.928ZM163.101 27.288C162.061 27.288 161.085 27.192 160.173 27C159.261 26.824 158.453 26.528 157.749 26.112C157.061 25.696 156.517 25.152 156.117 24.48C155.717 23.792 155.517 22.952 155.517 21.96C155.517 21.896 155.517 21.824 155.517 21.744C155.517 21.664 155.525 21.6 155.541 21.552H159.693C159.693 21.6 159.685 21.664 159.669 21.744C159.669 21.808 159.669 21.864 159.669 21.912C159.669 22.424 159.797 22.84 160.053 23.16C160.325 23.464 160.701 23.688 161.181 23.832C161.661 23.96 162.221 24.024 162.861 24.024C163.213 24.024 163.541 24.008 163.845 23.976C164.149 23.944 164.421 23.888 164.661 23.808C164.901 23.728 165.109 23.632 165.285 23.52C165.477 23.392 165.613 23.248 165.693 23.088C165.789 22.912 165.837 22.712 165.837 22.488C165.837 22.12 165.693 21.816 165.405 21.576C165.133 21.336 164.757 21.136 164.277 20.976C163.813 20.816 163.285 20.664 162.693 20.52C162.101 20.376 161.485 20.224 160.845 20.064C160.205 19.904 159.589 19.704 158.997 19.464C158.405 19.224 157.869 18.92 157.389 18.552C156.925 18.184 156.549 17.728 156.261 17.184C155.989 16.624 155.853 15.952 155.853 15.168C155.853 14.304 156.037 13.56 156.405 12.936C156.773 12.296 157.277 11.776 157.917 11.376C158.573 10.976 159.325 10.688 160.173 10.512C161.021 10.32 161.925 10.224 162.885 10.224C163.829 10.224 164.709 10.32 165.525 10.512C166.357 10.704 167.093 11.008 167.733 11.424C168.373 11.824 168.869 12.336 169.221 12.96C169.589 13.568 169.781 14.304 169.797 15.168V15.456H165.669V15.288C165.669 14.92 165.565 14.6 165.357 14.328C165.165 14.04 164.869 13.816 164.469 13.656C164.069 13.48 163.573 13.392 162.981 13.392C162.389 13.392 161.885 13.448 161.469 13.56C161.069 13.672 160.757 13.832 160.533 14.04C160.325 14.248 160.221 14.496 160.221 14.784C160.221 15.136 160.357 15.424 160.629 15.648C160.917 15.872 161.301 16.064 161.781 16.224C162.261 16.384 162.797 16.536 163.389 16.68C163.981 16.808 164.589 16.952 165.213 17.112C165.853 17.256 166.469 17.448 167.061 17.688C167.653 17.912 168.189 18.208 168.669 18.576C169.149 18.928 169.525 19.368 169.797 19.896C170.085 20.424 170.229 21.064 170.229 21.816C170.229 23.128 169.917 24.184 169.293 24.984C168.685 25.784 167.837 26.368 166.749 26.736C165.677 27.104 164.461 27.288 163.101 27.288ZM177.771 27V12.528H172.131V10.536H185.739V12.528H180.051V27H177.771ZM188.774 27V10.536H197.438C198.558 10.536 199.486 10.744 200.222 11.16C200.974 11.56 201.534 12.128 201.902 12.864C202.27 13.584 202.454 14.416 202.454 15.36C202.454 16.496 202.198 17.472 201.686 18.288C201.174 19.104 200.47 19.688 199.574 20.04L203.03 27H200.534L197.318 20.448H191.054V27H188.774ZM191.054 18.504H197.222C198.134 18.504 198.846 18.224 199.358 17.664C199.886 17.104 200.15 16.336 200.15 15.36C200.15 14.752 200.038 14.24 199.814 13.824C199.59 13.408 199.262 13.088 198.83 12.864C198.398 12.624 197.862 12.504 197.222 12.504H191.054V18.504ZM204.795 27L211.299 10.536H214.299L220.827 27H218.355L216.747 22.92H208.731L207.147 27H204.795ZM209.475 20.976H215.979L213.987 15.816C213.939 15.672 213.867 15.472 213.771 15.216C213.675 14.96 213.571 14.68 213.459 14.376C213.347 14.056 213.235 13.736 213.123 13.416C213.011 13.08 212.907 12.776 212.811 12.504H212.667C212.555 12.824 212.427 13.192 212.283 13.608C212.139 14.024 211.995 14.432 211.851 14.832C211.707 15.216 211.587 15.544 211.491 15.816L209.475 20.976ZM227.171 27L221.027 10.536H223.499L227.723 22.2C227.819 22.424 227.915 22.68 228.011 22.968C228.107 23.256 228.203 23.536 228.299 23.808C228.395 24.08 228.483 24.32 228.563 24.528H228.707C228.771 24.336 228.851 24.104 228.947 23.832C229.043 23.56 229.139 23.288 229.235 23.016C229.331 22.728 229.427 22.456 229.523 22.2L233.699 10.536H236.099L229.931 27H227.171ZM238.893 27V10.536H251.565V12.504H241.173V17.592H250.509V19.56H241.173V25.032H251.709V27H238.893ZM255.616 27V10.536H257.896V25.008H266.08V27H255.616Z" fill="#155BD5"/>
</svg>
