<svg width="184" height="39" viewBox="0 0 184 39" fill="none" xmlns="http://www.w3.org/2000/svg">
<rect width="184" height="39" fill="white"/>
<path d="M7.8 27V10.512H16.872C17.992 10.512 18.944 10.744 19.728 11.208C20.528 11.656 21.136 12.288 21.552 13.104C21.984 13.904 22.2 14.848 22.2 15.936C22.2 17.056 21.976 18.024 21.528 18.84C21.096 19.656 20.472 20.296 19.656 20.76C18.856 21.208 17.896 21.432 16.776 21.432H12.096V27H7.8ZM12.096 18.12H15.768C16.44 18.12 16.952 17.936 17.304 17.568C17.656 17.184 17.832 16.656 17.832 15.984C17.832 15.504 17.752 15.112 17.592 14.808C17.448 14.504 17.224 14.272 16.92 14.112C16.616 13.936 16.232 13.848 15.768 13.848H12.096V18.12ZM22.2345 27L28.4265 10.512H33.5865L39.7785 27H35.1945L34.2105 24.144H27.6345L26.6505 27H22.2345ZM28.6665 20.928H33.1545L31.9785 17.448C31.9145 17.272 31.8345 17.056 31.7385 16.8C31.6585 16.528 31.5705 16.248 31.4745 15.96C31.3945 15.656 31.3145 15.352 31.2345 15.048C31.1545 14.744 31.0745 14.48 30.9945 14.256H30.8265C30.7625 14.56 30.6665 14.904 30.5385 15.288C30.4265 15.672 30.3065 16.056 30.1785 16.44C30.0665 16.824 29.9625 17.16 29.8665 17.448L28.6665 20.928ZM42.2287 27V10.512H46.0447L52.0447 18.168C52.1567 18.296 52.3007 18.48 52.4767 18.72C52.6687 18.96 52.8527 19.208 53.0287 19.464C53.2047 19.704 53.3327 19.896 53.4127 20.04L53.5327 20.016C53.5327 19.664 53.5327 19.328 53.5327 19.008C53.5327 18.672 53.5327 18.392 53.5327 18.168V10.512H57.5167V27H53.7247L47.3647 18.936C47.1567 18.68 46.9567 18.416 46.7647 18.144C46.5887 17.872 46.4447 17.648 46.3327 17.472L46.2127 17.496C46.2127 17.752 46.2127 18.016 46.2127 18.288C46.2127 18.544 46.2127 18.76 46.2127 18.936V27H42.2287ZM66.8314 27.288C65.5034 27.288 64.3594 27.096 63.3994 26.712C62.4554 26.312 61.7354 25.712 61.2394 24.912C60.7434 24.096 60.4954 23.056 60.4954 21.792V21.264H64.5994V21.792C64.5994 22.528 64.7754 23.072 65.1274 23.424C65.4954 23.76 66.0314 23.928 66.7354 23.928C67.4234 23.928 67.9434 23.712 68.2954 23.28C68.6634 22.848 68.8474 22.184 68.8474 21.288V10.512H73.1434V21.312C73.1434 22.672 72.8954 23.8 72.3994 24.696C71.9034 25.576 71.1834 26.232 70.2394 26.664C69.2954 27.08 68.1594 27.288 66.8314 27.288ZM77.1966 27V10.512H81.4926V27H77.1966ZM89.871 27V12.528H84.231V10.536H97.839V12.528H92.151V27H89.871ZM100.874 27V10.536H109.538C110.658 10.536 111.586 10.744 112.322 11.16C113.074 11.56 113.634 12.128 114.002 12.864C114.37 13.584 114.554 14.416 114.554 15.36C114.554 16.496 114.298 17.472 113.786 18.288C113.274 19.104 112.57 19.688 111.674 20.04L115.13 27H112.634L109.418 20.448H103.154V27H100.874ZM103.154 18.504H109.322C110.234 18.504 110.946 18.224 111.458 17.664C111.986 17.104 112.25 16.336 112.25 15.36C112.25 14.752 112.138 14.24 111.914 13.824C111.69 13.408 111.362 13.088 110.93 12.864C110.498 12.624 109.962 12.504 109.322 12.504H103.154V18.504ZM116.895 27L123.399 10.536H126.399L132.927 27H130.455L128.847 22.92H120.831L119.247 27H116.895ZM121.575 20.976H128.079L126.087 15.816C126.039 15.672 125.967 15.472 125.871 15.216C125.775 14.96 125.671 14.68 125.559 14.376C125.447 14.056 125.335 13.736 125.223 13.416C125.111 13.08 125.007 12.776 124.911 12.504H124.767C124.655 12.824 124.527 13.192 124.383 13.608C124.239 14.024 124.095 14.432 123.951 14.832C123.807 15.216 123.687 15.544 123.591 15.816L121.575 20.976ZM139.271 27L133.127 10.536H135.599L139.823 22.2C139.919 22.424 140.015 22.68 140.111 22.968C140.207 23.256 140.303 23.536 140.399 23.808C140.495 24.08 140.583 24.32 140.663 24.528H140.807C140.871 24.336 140.951 24.104 141.047 23.832C141.143 23.56 141.239 23.288 141.335 23.016C141.431 22.728 141.527 22.456 141.623 22.2L145.799 10.536H148.199L142.031 27H139.271ZM150.993 27V10.536H163.665V12.504H153.273V17.592H162.609V19.56H153.273V25.032H163.809V27H150.993ZM167.716 27V10.536H169.996V25.008H178.18V27H167.716Z" fill="#155BD5"/>
</svg>
